<svg xmlns="http://www.w3.org/2000/svg" width="3840" height="2160" viewBox="0 0 3840 2160">
<defs>
  <filter id="shadow" x="-20%" y="-20%" width="140%" height="140%"><feDropShadow dx="0" dy="12" stdDeviation="18" flood-color="#D5E4F7" flood-opacity="0.65"/></filter>
  <linearGradient id="bg" x1="0" y1="0" x2="1" y2="1"><stop offset="0" stop-color="#FFFFFF"/><stop offset="1" stop-color="#EEF6FF"/></linearGradient>
  <marker id="arrowBlue" markerWidth="14" markerHeight="14" refX="10" refY="5" orient="auto" markerUnits="strokeWidth"><path d="M0,0 L10,5 L0,10 z" fill="#1F6FE5"/></marker>
  <marker id="arrowGold" markerWidth="14" markerHeight="14" refX="10" refY="5" orient="auto" markerUnits="strokeWidth"><path d="M0,0 L10,5 L0,10 z" fill="#C8942D"/></marker>
  <style>
  .title{font-family:"Noto Sans CJK SC","Microsoft YaHei",Arial,sans-serif;font-size:92px;font-weight:800;fill:#12315C;letter-spacing:-1px}
  .subtitle{font-family:"Noto Sans CJK SC","Microsoft YaHei",Arial,sans-serif;font-size:42px;font-weight:500;fill:#5C6F8C}
  .label{font-family:"Noto Sans CJK SC","Microsoft YaHei",Arial,sans-serif;font-size:34px;font-weight:700;fill:#1F4E8C}
  .body{font-family:"Noto Sans CJK SC","Microsoft YaHei",Arial,sans-serif;font-size:32px;font-weight:400;fill:#26384D}
  .small{font-family:"Noto Sans CJK SC","Microsoft YaHei",Arial,sans-serif;font-size:26px;font-weight:400;fill:#5C6F8C}
  .tiny{font-family:"Noto Sans CJK SC","Microsoft YaHei",Arial,sans-serif;font-size:22px;font-weight:400;fill:#6D7F99}
  .num{font-family:"Inter",Arial,sans-serif;font-size:92px;font-weight:850;fill:#C8942D}
  .big{font-family:"Inter",Arial,sans-serif;font-size:132px;font-weight:850;fill:#12315C}
  .gold{fill:#C8942D}.blue{fill:#1F6FE5}.navy{fill:#12315C}.muted{fill:#7C8CA5}
  .card{fill:#FFFFFF;stroke:#BFD4F2;stroke-width:3;rx:28;filter:url(#shadow)}
  .cardBlue{fill:#F4F8FF;stroke:#8CB8F2;stroke-width:3;rx:28;filter:url(#shadow)}
  .line{stroke:#7DADEB;stroke-width:5;fill:none;stroke-linecap:round;stroke-linejoin:round}
  .lineGold{stroke:#C8942D;stroke-width:6;fill:none;stroke-linecap:round;stroke-linejoin:round}
  .dash{stroke:#9BBFEF;stroke-width:4;fill:none;stroke-dasharray:18 16;stroke-linecap:round}
</style>
</defs>
<rect width="3840" height="2160" fill="url(#bg)"/>
<circle cx="3360" cy="260" r="360" fill="#EAF3FF" opacity="0.7"/>
<circle cx="260" cy="1880" r="420" fill="#F8FBFF" opacity="0.8"/>
<text x="180" y="190" class="tiny">AI × 组织变革方法论</text>
<text x="180" y="320" class="title" text-anchor="start">AI接管前移</text><text x="180" y="385" class="subtitle" text-anchor="start">AI 每往前移一步，人就越靠近“提出对的问题”</text><rect x="230" y="560" width="360" height="88" class="cardBlue" /><text x="410.0" y="618" font-family="Noto Sans CJK SC,Arial" font-size="58" font-weight="800" fill="#FFFFFF" text-anchor="middle">时代</text><rect x="614" y="560" width="520" height="88" class="cardBlue" /><text x="874.0" y="618" font-family="Noto Sans CJK SC,Arial" font-size="58" font-weight="800" fill="#FFFFFF" text-anchor="middle">定义需求</text><rect x="1158" y="560" width="520" height="88" class="cardBlue" /><text x="1418.0" y="618" font-family="Noto Sans CJK SC,Arial" font-size="58" font-weight="800" fill="#FFFFFF" text-anchor="middle">产出</text><rect x="1702" y="560" width="520" height="88" class="cardBlue" /><text x="1962.0" y="618" font-family="Noto Sans CJK SC,Arial" font-size="58" font-weight="800" fill="#FFFFFF" text-anchor="middle">检查</text><rect x="2246" y="560" width="860" height="88" class="cardBlue" /><text x="2676.0" y="618" font-family="Noto Sans CJK SC,Arial" font-size="58" font-weight="800" fill="#FFFFFF" text-anchor="middle">角色定位</text><rect x="230" y="684" width="360" height="230" class="card" /><text x="272" y="766" class="small" text-anchor="start">ERA·01</text><text x="272" y="829" font-family="Noto Sans CJK SC,Arial" font-size="58" font-weight="800" fill="#FFFFFF" text-anchor="start">GPT之前</text><rect x="614" y="684" width="520" height="230" rx="28" fill="#F8FAFD" stroke="#C8D7EA" stroke-width="4" filter="url(#shadow)"/><text x="874.0" y="819" class="big" text-anchor="middle">人</text><rect x="1158" y="684" width="520" height="230" rx="28" fill="#F8FAFD" stroke="#C8D7EA" stroke-width="4" filter="url(#shadow)"/><text x="1418.0" y="819" class="big" text-anchor="middle">人</text><rect x="1702" y="684" width="520" height="230" rx="28" fill="#E9F3FF" stroke="#1F6FE5" stroke-width="4" filter="url(#shadow)"/><text x="1962.0" y="819" class="big" text-anchor="middle">AI</text><rect x="2246" y="684" width="860" height="230" class="card" /><text x="2294" y="772" font-family="Noto Sans CJK SC,Arial" font-size="58" font-weight="800" fill="#FFFFFF" text-anchor="start">AI在最后一步</text>
<text x="2294" y="836" font-family="Noto Sans CJK SC,Arial" font-size="58" font-weight="800" fill="#FFFFFF" text-anchor="start">校对员</text><rect x="230" y="958" width="360" height="230" class="card" /><text x="272" y="1040" class="small" text-anchor="start">ERA·02</text><text x="272" y="1103" font-family="Noto Sans CJK SC,Arial" font-size="58" font-weight="800" fill="#FFFFFF" text-anchor="start">GPT时代</text><rect x="614" y="958" width="520" height="230" rx="28" fill="#F8FAFD" stroke="#C8D7EA" stroke-width="4" filter="url(#shadow)"/><text x="874.0" y="1093" class="big" text-anchor="middle">人</text><rect x="1158" y="958" width="520" height="230" rx="28" fill="#E9F3FF" stroke="#1F6FE5" stroke-width="4" filter="url(#shadow)"/><text x="1418.0" y="1093" class="big" text-anchor="middle">AI</text><rect x="1702" y="958" width="520" height="230" rx="28" fill="#E9F3FF" stroke="#1F6FE5" stroke-width="4" filter="url(#shadow)"/><text x="1962.0" y="1093" class="big" text-anchor="middle">AI</text><rect x="2246" y="958" width="860" height="230" class="card" /><text x="2294" y="1046" font-family="Noto Sans CJK SC,Arial" font-size="58" font-weight="800" fill="#FFFFFF" text-anchor="start">AI在中间步骤</text>
<text x="2294" y="1110" font-family="Noto Sans CJK SC,Arial" font-size="58" font-weight="800" fill="#FFFFFF" text-anchor="start">执行者</text><rect x="230" y="1232" width="360" height="230" class="cardBlue" /><text x="272" y="1314" class="small" text-anchor="start">ERA·03</text><text x="272" y="1377" font-family="Noto Sans CJK SC,Arial" font-size="58" font-weight="800" fill="#FFFFFF" text-anchor="start">Agent时代</text><rect x="614" y="1232" width="520" height="230" rx="28" fill="#1F6FE5" stroke="#1F6FE5" stroke-width="4" filter="url(#shadow)"/><text x="874.0" y="1367" font-family="Noto Sans CJK SC,Arial" font-size="58" font-weight="800" fill="#FFFFFF" text-anchor="middle">人 + AI</text><rect x="1158" y="1232" width="520" height="230" rx="28" fill="#E9F3FF" stroke="#1F6FE5" stroke-width="4" filter="url(#shadow)"/><text x="1418.0" y="1367" class="big" text-anchor="middle">AI</text><rect x="1702" y="1232" width="520" height="230" rx="28" fill="#E9F3FF" stroke="#1F6FE5" stroke-width="4" filter="url(#shadow)"/><text x="1962.0" y="1367" class="big" text-anchor="middle">AI</text><rect x="2246" y="1232" width="860" height="230" class="cardBlue" /><text x="2294" y="1320" class="label" text-anchor="start">AI在第一步</text>
<text x="2294" y="1384" class="label" text-anchor="start">协作者</text><path d="M520 1570 C1220 1680, 2260 1680, 3180 1570" class="lineGold" marker-end="url(#arrowGold)"/><text x="1920" y="1740" class="label" text-anchor="middle">从校对员 → 执行者 → 协作者：AI 的位置不断前移，人的价值转向目标、判断与提问。</text><text x="180" y="2040" class="tiny">business_blue_consulting_wireframe · 3840×2160</text></svg>